HIERARCHY
ROOT root
{
	OFFSET 0.000000 0.000000 0.000000
	CHANNELS 6 Xposition Yposition Zposition Zrotation Yrotation Xrotation
	JOINT lhip
	{
		OFFSET 0.058581 -0.082280 -0.017664
		CHANNELS 3 Zrotation Yrotation Xrotation
		JOINT lknee
		{
			OFFSET 0.043451 -0.386469 0.008037
			CHANNELS 3 Zrotation Yrotation Xrotation
			JOINT lankle
			{
				OFFSET -0.014790 -0.426874 -0.037428
				CHANNELS 3 Zrotation Yrotation Xrotation
				JOINT ltoe
				{
					OFFSET 0.041054 -0.060286 0.122042
					CHANNELS 3 Zrotation Yrotation Xrotation
					End Site
					{
						OFFSET 0.000000 0.000000 0.000000
					}
				}
			}
		}
	}
	JOINT rhip
	{
		OFFSET -0.060310 -0.090513 -0.013543
		CHANNELS 3 Zrotation Yrotation Xrotation
		JOINT rknee
		{
			OFFSET -0.043257 -0.383688 -0.004843
			CHANNELS 3 Zrotation Yrotation Xrotation
			JOINT rankle
			{
				OFFSET 0.019056 -0.420046 -0.034562
				CHANNELS 3 Zrotation Yrotation Xrotation
				JOINT rtoe
				{
					OFFSET -0.034840 -0.062106 0.130323
					CHANNELS 3 Zrotation Yrotation Xrotation
					End Site
					{
						OFFSET 0.000000 0.000000 0.000000
					}
				}
			}
		}
	}
	JOINT lowerback
	{
		OFFSET 0.004439 0.124404 -0.038385
		CHANNELS 3 Zrotation Yrotation Xrotation
		JOINT upperback
		{
			OFFSET 0.004488 0.137956 0.026820
			CHANNELS 3 Zrotation Yrotation Xrotation
			JOINT chest
			{
				OFFSET -0.002265 0.056032 0.002855
				CHANNELS 3 Zrotation Yrotation Xrotation
				JOINT lowerneck
				{
					OFFSET -0.013390 0.211636 -0.033468
					CHANNELS 3 Zrotation Yrotation Xrotation
					JOINT upperneck
					{
						OFFSET 0.010113 0.088937 0.050410
						CHANNELS 3 Zrotation Yrotation Xrotation
						End Site
						{
							OFFSET 0.000000 0.000000 0.000000
						}
					}
				}
				JOINT lclavicle
				{
					OFFSET 0.071702 0.114000 -0.018898
					CHANNELS 3 Zrotation Yrotation Xrotation
					JOINT lshoulder
					{
						OFFSET 0.122921 0.045205 -0.019046
						CHANNELS 3 Zrotation Yrotation Xrotation
						JOINT lelbow
						{
							OFFSET 0.255332 -0.015649 -0.022946
							CHANNELS 3 Zrotation Yrotation Xrotation
							JOINT lwrist
							{
								OFFSET 0.265709 0.012698 -0.007375
								CHANNELS 3 Zrotation Yrotation Xrotation
								End Site
								{
									OFFSET 0.000000 0.000000 0.000000
								}
							}
						}
					}
				}
				JOINT rclavicle
				{
					OFFSET -0.082954 0.112472 -0.023707
					CHANNELS 3 Zrotation Yrotation Xrotation
					JOINT rshoulder
					{
						OFFSET -0.113228 0.046853 -0.008472
						CHANNELS 3 Zrotation Yrotation Xrotation
						JOINT relbow
						{
							OFFSET -0.260127 -0.014369 -0.031269
							CHANNELS 3 Zrotation Yrotation Xrotation
							JOINT rwrist
							{
								OFFSET -0.269108 0.006794 -0.006027
								CHANNELS 3 Zrotation Yrotation Xrotation
								End Site
								{
									OFFSET 0.000000 0.000000 0.000000
								}
							}
						}
					}
				}
			}
		}
	}
}
MOTION
Frames: 14
Frame Time: 0.033333
0.307399 0.189313 1.251922 -91.809388 -1.594303 93.735873 2.013708 -9.174480 -32.193384 -8.287472 4.580706 33.179048 1.137321 5.128043 -9.750483 0.000000 -0.000000 0.000000 0.640576 0.004562 -3.363922 -0.447925 -0.607022 54.948938 8.057650 -2.154184 -6.200966 0.000000 -0.000000 0.000000 -2.458919 7.413809 21.212424 1.843419 0.004097 -0.205647 1.054304 1.527962 -1.544739 -1.926798 -3.423769 -12.756405 3.465395 -3.353257 -6.396125 -20.593398 6.400359 3.700618 -53.875741 13.315752 14.374480 -120.726192 -81.095138 145.507727 15.177538 -17.083740 -26.744214 19.237371 0.467613 1.171573 60.030954 -8.060524 14.148762 -58.836518 84.348325 -36.645281 -2.195167 16.032279 -8.016017 
0.205484 0.189142 1.251291 -90.280935 -0.858254 92.739409 -0.529522 -8.709582 -24.343338 -9.273156 0.344898 33.514042 5.068991 5.947135 -12.447480 0.000000 -0.000000 0.000000 0.333557 0.073251 -9.667535 -1.648148 -4.883595 66.470577 5.023671 -6.007873 -11.205509 0.000000 -0.000000 0.000000 -2.363568 4.244184 20.904882 2.243451 0.189594 -1.672535 0.415789 0.565166 0.602644 -0.125823 -1.586995 -14.071953 1.651615 -3.172649 -5.752158 -22.818336 7.289458 2.807785 -53.165509 6.387575 17.509597 -141.574185 -81.503254 166.931133 16.455242 -15.539235 -27.713174 21.222466 -2.695676 1.216092 56.836396 -7.928294 16.561697 -30.110640 77.607278 -7.819791 -2.278277 15.074319 -8.343058 
0.104737 0.189070 1.240561 -88.777527 -0.277168 92.206931 -2.230715 -6.520898 -16.036661 -9.517891 -3.407172 32.644544 8.331126 7.577110 -19.583448 0.000000 -0.000000 0.000000 -0.532020 -0.131026 -18.450099 -2.584510 -7.823254 75.549840 3.373095 -9.538028 -16.027055 0.000000 -0.000000 0.000000 -2.074927 0.825314 20.906252 1.891663 0.294768 -2.925159 0.186765 -0.746202 1.288944 1.044348 -0.903672 -14.740694 0.772526 -1.545540 -4.148997 -23.628241 6.097011 1.602722 -53.846861 0.709243 18.568067 -159.723804 -79.869927 -174.364036 18.409005 -14.650415 -28.204700 21.440762 -3.674839 1.139999 54.625734 -10.207609 16.419883 -20.100739 69.820076 -0.267632 -2.479603 14.092939 -7.438680 
0.004158 0.188874 1.227423 -86.698419 0.005335 92.220247 -2.421459 -4.030869 -7.978732 -10.251996 -7.895067 30.724580 8.896535 7.952457 -24.557350 0.000000 -0.000000 0.000000 -1.469328 -0.548986 -28.171037 -2.617463 -9.830629 79.354261 2.644077 -11.051527 -20.090065 0.000000 -0.000000 0.000000 -2.047680 -2.743193 20.941796 1.921153 0.157104 -3.952872 0.262078 -2.063901 1.221503 1.191501 -0.089243 -15.748498 0.253680 -0.572942 -2.336349 -23.725981 4.621979 0.710297 -55.651390 -5.537881 19.169440 -174.274096 -77.619404 -159.352437 20.427413 -14.401477 -28.949794 21.546195 -4.901237 1.511923 51.672674 -12.847009 15.556767 -17.065366 64.165314 1.243927 -2.655233 14.014145 -6.144133 
-0.097991 0.187906 1.216754 -84.384702 0.190922 92.346449 -1.104924 -1.839322 -0.174721 -11.450064 -12.481258 28.886792 6.952417 6.640461 -25.966166 0.000000 -0.000000 0.000000 -2.454170 -0.690725 -36.137622 -1.796035 -11.606473 75.926140 3.163833 -10.077142 -21.985691 0.000000 -0.000000 0.000000 -1.733994 -5.958450 20.696034 2.187472 -0.279696 -4.278913 0.735934 -3.489477 0.816825 0.265746 0.707745 -16.831599 -0.017969 0.408755 -1.314353 -23.332633 3.519548 0.332282 -58.808355 -11.442842 19.538402 175.448097 -74.620323 -148.505963 21.467598 -14.908728 -29.435747 21.132361 -6.981790 2.241609 47.981079 -15.758465 14.777565 -16.259413 63.805661 2.509387 -2.693994 14.877863 -5.305140 
-0.203703 0.186447 1.208447 -82.899536 0.424941 92.518866 1.156777 -0.137692 7.012422 -12.407336 -16.256672 27.644531 2.268417 4.116624 -23.550187 0.000000 -0.000000 0.000000 -3.233710 0.231754 -40.523583 -0.566988 -13.138335 64.948754 4.416852 -8.115144 -20.676870 0.000000 -0.000000 0.000000 -0.699733 -8.418872 19.320802 2.067717 -1.096476 -3.855488 1.292926 -4.979600 0.536463 -1.142067 1.347284 -16.712454 -0.017124 2.371154 -1.896382 -21.995229 3.125402 0.421379 -62.321913 -15.378245 20.132277 170.314983 -70.870100 -142.521001 22.654064 -15.725275 -30.025570 18.556333 -9.285814 3.160090 45.908433 -18.259410 14.497967 -13.379833 67.060688 6.227666 -2.910829 15.349633 -8.663999 
-0.313948 0.183812 1.199222 -82.292997 0.370399 92.680051 2.558033 -0.116739 13.490287 -12.517874 -19.972194 27.013820 -4.386538 1.568708 -17.693945 0.000000 -0.000000 0.000000 -3.694339 1.760992 -40.538710 0.460559 -13.986347 48.079627 7.365690 -6.805316 -13.526703 0.000000 -0.000000 0.000000 0.592627 -10.786650 16.283747 1.739933 -1.986483 -2.167776 1.185169 -5.547803 0.025696 -2.993813 1.156442 -14.611987 0.551497 4.776860 -3.947277 -20.125929 3.341445 1.050824 -64.393386 -16.920004 21.122249 170.256635 -67.175604 -142.236025 24.195990 -16.342438 -31.472772 14.706092 -11.356574 4.533631 45.675258 -20.607611 14.651821 -8.576178 72.292230 12.414752 -3.218797 15.547371 -12.353361 
-0.427773 0.179812 1.182903 -82.129102 -0.510691 92.500172 1.729350 -1.095813 18.789280 -11.244904 -22.925150 28.414639 -11.946799 -1.951350 -10.181226 0.000000 -0.000000 0.000000 -3.836054 2.653034 -37.131857 -0.088967 -15.152348 30.126152 12.158793 -6.954253 -0.148216 0.000000 -0.000000 0.000000 1.535755 -12.465117 12.637124 0.618840 -2.741215 -0.503043 1.144619 -5.288862 -0.560696 -5.619406 -0.542695 -11.653601 2.097301 7.333818 -4.667646 -17.112472 2.882149 1.386235 -66.381696 -15.131740 23.241666 170.857404 -64.333348 -143.026241 23.834574 -17.921294 -30.830029 9.736061 -12.308421 5.776918 46.797105 -24.842268 12.529077 14.435336 78.360912 35.317931 -2.587238 16.530769 -13.625499 
-0.542820 0.178426 1.155031 -82.216303 -1.868840 92.335403 0.265832 -2.068513 21.457068 -11.850975 -23.735318 34.549260 -13.127261 -2.776649 -4.399359 0.000000 -0.000000 0.000000 -2.743084 1.975600 -33.462918 -1.111192 -14.813681 18.205902 13.671029 -8.539578 10.031826 0.000000 -0.000000 0.000000 1.533344 -12.413272 8.274836 -0.035242 -3.086039 0.918814 0.735090 -5.267719 -0.206612 -7.667986 -2.182344 -7.530752 2.509849 8.977985 -6.233584 -14.308833 4.502941 2.207470 -66.555739 -14.401168 23.387765 179.718567 -63.118205 -150.985265 22.945320 -18.565480 -31.444437 5.361291 -14.232809 7.460266 48.497004 -27.278284 12.457522 48.537381 82.025202 70.802862 -1.372774 17.492397 -15.871412 
-0.655538 0.180608 1.115897 -82.029268 -2.955450 91.386636 0.859288 -1.614046 20.693155 -12.782100 -20.002279 45.877892 -12.115891 -2.118318 0.750552 0.000000 -0.000000 0.000000 -1.336200 0.938114 -29.992227 -1.980473 -12.777894 16.127496 11.816756 -8.622104 14.441985 0.000000 -0.000000 0.000000 0.710957 -11.311184 6.131102 -0.040883 -3.290851 1.573991 0.574667 -5.269427 0.184414 -9.012350 -3.244729 -5.046428 2.613761 9.382035 -6.385219 -12.289168 6.098709 2.735439 -65.889154 -12.518354 22.389870 -171.310703 -61.766216 -158.710128 21.241953 -18.882495 -31.184394 3.267906 -15.531293 8.045469 49.975443 -28.954209 11.765287 89.893219 82.452046 113.673491 0.233357 18.411869 -15.721232 
-0.763863 0.184229 1.067993 -81.725191 -3.494731 89.690838 2.912329 -1.033572 17.041298 -12.735869 -14.209374 60.691422 -8.891352 0.377717 0.736015 0.000000 -0.000000 0.000000 -0.013984 1.082667 -25.899566 -1.073057 -8.474577 21.887188 6.920620 -7.517840 5.279579 0.000000 -0.000000 0.000000 -0.628350 -9.725282 6.448021 0.736246 -3.444975 1.920181 0.610799 -5.042344 0.002811 -9.123149 -3.352790 -3.947442 2.173523 8.362246 -6.342143 -11.926609 7.158075 3.370376 -64.423291 -9.372578 20.392893 -165.095324 -60.944233 -164.314279 20.813468 -17.668983 -32.171524 4.478037 -15.413301 7.402940 51.779385 -28.806625 10.275606 115.761448 82.527955 140.716249 0.409281 18.210076 -14.672104 
-0.864272 0.189399 1.015046 -82.770357 -3.047420 88.398502 5.490717 -0.874568 10.110021 -12.114628 -8.270363 77.010948 -5.623261 2.215244 -4.491364 0.000000 -0.000000 0.000000 3.413301 2.738111 -22.158413 -0.320734 -4.392773 31.100560 -2.892141 -7.858251 -13.767575 0.000000 -0.000000 0.000000 -1.224932 -7.449527 8.621941 1.900191 -2.740831 0.681588 0.576726 -4.543730 0.154408 -7.914592 -2.130015 -5.099178 1.017461 5.934496 -4.602286 -13.397247 7.883988 3.429644 -62.598954 -5.464593 18.273644 -162.165410 -62.613407 -167.122407 20.552717 -15.764675 -35.267692 8.652776 -13.766145 5.628727 53.882624 -25.471612 9.111938 131.204852 85.270534 157.452782 -0.816378 17.094458 -15.895287 
-0.954803 0.194712 0.971707 -85.660621 -1.557543 87.606857 7.756595 -1.870016 -0.151401 -11.390352 -2.001067 91.015951 -3.516073 2.985566 -8.842429 0.000000 -0.000000 0.000000 8.395871 6.816373 -18.456114 -1.616529 -3.208122 38.740752 -8.562623 -12.471535 -25.481351 0.000000 -0.000000 0.000000 -0.694438 -5.023168 12.509486 3.292663 -0.681779 -0.921860 0.526817 -3.542548 0.186374 -6.110635 -0.758398 -9.895167 -1.120414 3.467744 -0.435554 -17.758712 8.948349 2.556434 -60.678544 -2.322146 16.728579 -162.228795 -69.346732 -166.746821 19.001082 -15.611212 -35.554157 16.366482 -10.101471 2.642545 53.918492 -17.771732 10.852736 -60.926594 86.366041 -34.251216 -1.684580 16.070713 -16.731496 
-1.043074 0.198172 0.949372 -88.075543 -0.693572 86.025063 8.382923 -3.651358 -11.718535 -10.267832 2.920032 98.606599 -1.083919 3.855452 -12.261392 0.000000 -0.000000 0.000000 11.502952 7.704722 -11.444789 -1.300319 -2.451429 41.445445 -9.557682 -14.963442 -32.332465 0.000000 -0.000000 0.000000 -1.152941 -2.330213 16.915791 4.668108 -0.154290 -0.931453 1.426390 -1.933692 -0.314256 -5.280457 0.826296 -14.344651 -3.358049 1.483169 1.849493 -20.247583 9.572502 1.913832 -62.070684 0.876054 14.073065 -159.022863 -79.157790 -169.539313 17.179376 -14.848174 -33.274126 22.028808 -3.817138 1.859474 53.895643 -6.317704 11.942420 -46.105356 78.126507 -19.360717 -2.411063 15.814462 -15.767710 
